<svg width="96" height="96" id="personalTimer" viewBox="0 0 32 32" xmlns="http://www.w3.org/2000/svg">
    <path d="M16 0a16 16 0 100 32 16 16 0 000-32zm.57 4.61l5.56-2.22c.63.29 1.25.62 1.83.99h.02c.57.37 1.12.77 1.64 1.21l.05.04c.23.2.46.4.68.62l.08.08c.24.22.46.46.68.7l.05.06c.19.21.37.43.55.66l.13.16c.19.25.38.5.55.76l-1.1 4.72-5.46 1.82-5.26-4.2zm-12.4 2.3l.12-.16.54-.65.06-.07.67-.7.08-.08.68-.6.05-.05C6.9 4.16 7.43 3.76 8 3.4l.03-.02c.58-.37 1.18-.7 1.81-.98l5.59 2.21V10l-5.25 4.2-5.46-1.81-1.1-4.72c.17-.26.35-.51.55-.76zm-.65 17.27c-.16-.23-.3-.48-.45-.73l-.04-.06c-.14-.24-.27-.5-.4-.75a14.6 14.6 0 01-.96-2.47l-.04-.11-.2-.78-.01-.08c-.13-.6-.23-1.2-.28-1.8l3.25-3.91 5.42 1.8 1.57 6.3-2.58 3.43zm16.03 6.32l-.81.18-.12.02c-.23.04-.47.08-.7.1l-.2.03c-.21.03-.43.04-.65.06l-.21.02a14.35 14.35 0 01-1.65 0h-.1l-.68-.06h-.03c-.5-.06-1-.14-1.5-.24l-3.16-4.94 2.54-3.4h7.43l2.59 3.42zM30.6 19.2l-.02.08-.2.78-.03.1-.26.81v.01c-.2.56-.44 1.12-.7 1.65v.01c-.13.26-.27.5-.41.75l-.04.06-.44.73-5.27.83-2.6-3.43 1.57-6.29 5.42-1.8 3.26 3.9c-.06.61-.15 1.21-.29 1.81z"></path>
</svg>